<svg xmlns="http://www.w3.org/2000/svg" viewBox="0 0 96 96" x="0px" y="0px"><g data-name="1">
  <path d="M16.3,45.31H26.66a1.5,1.5,0,0,0,1.5-1.5V33.45a1.5,1.5,0,0,0-1.5-1.5H16.3a1.5,1.5,0,0,0-1.5,1.5V43.81A1.5,1.5,0,0,0,16.3,45.31ZM17.8,35h7.36v7.36H17.8ZM86.92,13.29H78.5V9.92a1.5,1.5,0,0,0-3,0v3.37H66.9V9.92a1.5,1.5,0,0,0-3,0v3.37H55.3V9.92a1.5,1.5,0,0,0-3,0v3.37H43.7V9.92a1.5,1.5,0,0,0-3,0v3.37H32.1V9.92a1.5,1.5,0,0,0-3,0v3.37H20.5V9.92a1.5,1.5,0,0,0-3,0v3.37H9.08a1.5,1.5,0,0,0-1.5,1.5V86.08a1.5,1.5,0,0,0,1.5,1.5H86.92a1.5,1.5,0,0,0,1.5-1.5V14.79A1.5,1.5,0,0,0,86.92,13.29Zm-76.34,3H17.5v2.54a1.5,1.5,0,0,0,3,0V16.29h8.6v2.54a1.5,1.5,0,0,0,3,0V16.29h8.6v2.54a1.5,1.5,0,0,0,3,0V16.29h8.6v2.54a1.5,1.5,0,0,0,3,0V16.29h8.6v2.54a1.5,1.5,0,1,0,3,0V16.29h8.6v2.54a1.5,1.5,0,0,0,3,0V16.29h6.92V25H10.58ZM85.42,84.58H10.58V28H85.42ZM34,45.31H44.34a1.5,1.5,0,0,0,1.5-1.5V33.45a1.5,1.5,0,0,0-1.5-1.5H34a1.5,1.5,0,0,0-1.5,1.5V43.81A1.5,1.5,0,0,0,34,45.31ZM35.48,35h7.36v7.36H35.48ZM51.66,45.31H62a1.5,1.5,0,0,0,1.5-1.5V33.45A1.5,1.5,0,0,0,62,32H51.66a1.5,1.5,0,0,0-1.5,1.5V43.81A1.5,1.5,0,0,0,51.66,45.31ZM53.16,35h7.36v7.36H53.16ZM69.34,45.31H79.7a1.5,1.5,0,0,0,1.5-1.5V33.45A1.5,1.5,0,0,0,79.7,32H69.34a1.5,1.5,0,0,0-1.5,1.5V43.81A1.5,1.5,0,0,0,69.34,45.31ZM70.84,35H78.2v7.36H70.84ZM16.3,63H26.66a1.5,1.5,0,0,0,1.5-1.5V51.13a1.5,1.5,0,0,0-1.5-1.5H16.3a1.5,1.5,0,0,0-1.5,1.5V61.49A1.5,1.5,0,0,0,16.3,63Zm1.5-10.36h7.36V60H17.8ZM34,63H44.34a1.5,1.5,0,0,0,1.5-1.5V51.13a1.5,1.5,0,0,0-1.5-1.5H34a1.5,1.5,0,0,0-1.5,1.5V61.49A1.5,1.5,0,0,0,34,63Zm1.5-10.36h7.36V60H35.48ZM51.66,63H62a1.5,1.5,0,0,0,1.5-1.5V51.13a1.5,1.5,0,0,0-1.5-1.5H51.66a1.5,1.5,0,0,0-1.5,1.5V61.49A1.5,1.5,0,0,0,51.66,63Zm1.5-10.36h7.36V60H53.16ZM69.34,63H79.7a1.5,1.5,0,0,0,1.5-1.5V51.13a1.5,1.5,0,0,0-1.5-1.5H69.34a1.5,1.5,0,0,0-1.5,1.5V61.49A1.5,1.5,0,0,0,69.34,63Zm1.5-10.36H78.2V60H70.84ZM16.3,80.68H26.66a1.5,1.5,0,0,0,1.5-1.5V68.81a1.5,1.5,0,0,0-1.5-1.5H16.3a1.5,1.5,0,0,0-1.5,1.5V79.18A1.5,1.5,0,0,0,16.3,80.68Zm1.5-10.37h7.36v7.37H17.8ZM34,80.68H44.34a1.5,1.5,0,0,0,1.5-1.5V68.81a1.5,1.5,0,0,0-1.5-1.5H34a1.5,1.5,0,0,0-1.5,1.5V79.18A1.5,1.5,0,0,0,34,80.68Zm1.5-10.37h7.36v7.37H35.48ZM51.66,80.68H62a1.5,1.5,0,0,0,1.5-1.5V68.81a1.5,1.5,0,0,0-1.5-1.5H51.66a1.5,1.5,0,0,0-1.5,1.5V79.18A1.5,1.5,0,0,0,51.66,80.68Zm1.5-10.37h7.36v7.37H53.16ZM69.34,80.68H79.7a1.5,1.5,0,0,0,1.5-1.5V68.81a1.5,1.5,0,0,0-1.5-1.5H69.34a1.5,1.5,0,0,0-1.5,1.5V79.18A1.5,1.5,0,0,0,69.34,80.68Zm1.5-10.37H78.2v7.37H70.84Z"/>
</g></svg>
