<svg xmlns="http://www.w3.org/2000/svg" xmlns:xlink="http://www.w3.org/1999/xlink" version="1.1" x="0px" y="0px" viewBox="0 0 100 100" style="enable-background:new 0 0 100 100;" xml:space="preserve"><path d="M50.0000076,97.4984131c12.598053,0,24.6794815-5.0042801,33.5871964-13.9120102  c8.9077301-8.9087906,13.9120026-20.9904709,13.9120026-33.5871964s-5.0042801-24.6794777-13.9120102-33.5871964  C74.6784134,7.5042849,62.5967255,2.5,50,2.5S25.3205223,7.504283,16.4128017,16.4120083  C7.5050788,25.320797,2.5007918,37.4024849,2.5007918,49.9992065c0,8.3383522,2.1951106,16.5295944,6.3638334,23.7509232  c4.1687794,7.221077,10.1649561,13.2172623,17.3860321,17.3860397C33.4717369,95.3049393,41.6632347,97.5,50.0015869,97.5  L50.0000076,97.4984131z M24.6162395,44.6537781c1.1275902-1.0965195,2.6434746-1.7012253,4.215168-1.6825943  c1.5728264,0.0196762,3.0732365,0.6626816,4.1716976,1.7861328l10.7624245,11.0439339l24.7004128-26.5840149  c1.0716858-1.1534824,2.5564804-1.8337631,4.1292877-1.8917351c1.571785-0.059021,3.1031876,0.5094414,4.257576,1.5800667  c1.1545181,1.0737495,1.8358383,2.5627098,1.8907089,4.1385612c0.0559082,1.5759277-0.5177155,3.1103477-1.5935287,4.2628784  L48.1882782,68.4794006v-0.00103c-1.1099854,1.1803818-2.6538925,1.8565292-4.2742767,1.8699951  c-1.6194267,0.0144958-3.1755562-0.6347122-4.3052902-1.7954407L24.4975204,53.0555267  c-1.0996227-1.1296501-1.7043304-2.6496773-1.6825943-4.2255058c0.0227795-1.5759315,0.6699162-3.0782738,1.8006306-4.1759338  L24.6162395,44.6537781z"/></svg>
