<svg xmlns="http://www.w3.org/2000/svg" xmlns:xlink="http://www.w3.org/1999/xlink" version="1.1" x="0px" y="0px" viewBox="0 0 48 48" style="enable-background:new 0 0 48 48;" xml:space="preserve"><g><path d="M44,11h-3.5V6.5C40.5,5.67,39.83,5,39,5h-5c-0.83,0-1.5,0.67-1.5,1.5V11h-17V6.5C15.5,5.67,14.83,5,14,5H9   C8.17,5,7.5,5.67,7.5,6.5V11H4c-0.83,0-1.5,0.67-1.5,1.5v29C2.5,42.33,3.17,43,4,43h40c0.83,0,1.5-0.67,1.5-1.5v-29   C45.5,11.67,44.83,11,44,11z M35.5,8h2v3h-2V8z M10.5,8h2v3h-2V8z M42.5,40h-37V14H9h5h20h5h3.5V40z"/><path d="M34.23,25.19l-9-5c-0.46-0.26-1.03-0.25-1.49,0.02C23.28,20.48,23,20.97,23,21.5V23h-8.5c-0.83,0-1.5,0.67-1.5,1.5v4   c0,0.83,0.67,1.5,1.5,1.5H23v1.5c0,0.53,0.28,1.02,0.74,1.29c0.23,0.14,0.5,0.21,0.76,0.21c0.25,0,0.5-0.06,0.73-0.19l9-5   C34.7,27.55,35,27.04,35,26.5S34.7,25.45,34.23,25.19z M26,28.95V28.5c0-0.83-0.67-1.5-1.5-1.5H16v-1h8.5c0.83,0,1.5-0.67,1.5-1.5   v-0.45l4.41,2.45L26,28.95z"/></g></svg>
